# xmcd
#
# Track frame offsets:
#	182
#	17227
#	30940
#	43925
#	60870
#	76947
#	90802
#	106160
#	123247
#	136830
#	151270
#	168107
#	182420
#	199955
#	214820
#	228097
#	243095
#	261080
#	276350
#	293972
#	308027
#	324652
#	337495
#
# Disc length: 4686 seconds
#
# Revision: 0
# Processed by: cddbd v1.5.1PL0 Copyright (c) Steve Scherf et al.
# Submitted via: dBpowerAMP V4.0
#
DISCID=30124c17
DTITLE=Rose Marie - The Collection
DYEAR=1990
DGENRE=Country
TTITLE0=So Lucky
TTITLE1=When I Leave The World Behind
TTITLE2=I Fall To Pieces
TTITLE3=Mistakes
TTITLE4=Is It Too Late
TTITLE5=Make The World Go Away
TTITLE6=When Your Old Wedding Ring Was New
TTITLE7=Let The Rest Of The World Go By
TTITLE8=If I Had My Life To Live Over
TTITLE9=You're Breaking My Heart
TTITLE10=My Yiddishe Momma
TTITLE11=Hurt
TTITLE12=Cry
TTITLE13=The Old Rugged Cross
TTITLE14=My Mother's Eyes
TTITLE15=Wheel Of Fortune
TTITLE16=Danny Boy
TTITLE17=Anniversary Song
TTITLE18=Pal Of My Cradle Days
TTITLE19=Legend In My Time
TTITLE20=Sweet Sixteen
TTITLE21=Ave Maria
TTITLE22=Sunshine Of Your Smile
EXTD=
EXTT0=
EXTT1=
EXTT2=
EXTT3=
EXTT4=
EXTT5=
EXTT6=
EXTT7=
EXTT8=
EXTT9=
EXTT10=
EXTT11=
EXTT12=
EXTT13=
EXTT14=
EXTT15=
EXTT16=
EXTT17=
EXTT18=
EXTT19=
EXTT20=
EXTT21=
EXTT22=
PLAYORDER=
